<svg width="47" height="65" viewBox="0 0 47 65" fill="none" xmlns="http://www.w3.org/2000/svg">
<rect width="47" height="2" fill="black"/>
<rect x="47" y="65" width="47" height="2" transform="rotate(-180 47 65)" fill="black"/>
<rect y="5" width="47" height="2" fill="black"/>
<rect x="47" y="60" width="47" height="2" transform="rotate(-180 47 60)" fill="black"/>
<rect y="17" width="5" height="2" fill="black"/>
<rect x="47" y="48" width="5" height="2" transform="rotate(-180 47 48)" fill="black"/>
<rect x="42" y="17" width="5" height="2" fill="black"/>
<rect x="5" y="48" width="5" height="2" transform="rotate(-180 5 48)" fill="black"/>
<rect x="3" y="21" width="5" height="2" fill="black"/>
<rect x="44" y="44" width="5" height="2" transform="rotate(-180 44 44)" fill="black"/>
<rect x="39" y="21" width="5" height="2" fill="black"/>
<rect x="8" y="44" width="5" height="2" transform="rotate(-180 8 44)" fill="black"/>
<rect x="6" y="24" width="5" height="2" fill="black"/>
<rect x="9" y="27" width="5" height="2" fill="black"/>
<rect x="33" y="27" width="5" height="2" fill="black"/>
<rect x="9" y="36" width="5" height="2" fill="black"/>
<rect x="33" y="36" width="5" height="2" fill="black"/>
<rect x="41" y="41" width="5" height="2" transform="rotate(-180 41 41)" fill="black"/>
<rect x="36" y="24" width="5" height="2" fill="black"/>
<rect x="11" y="41" width="5" height="2" transform="rotate(-180 11 41)" fill="black"/>
<rect y="2" width="2" height="3" fill="black"/>
<rect x="47" y="63" width="2" height="3" transform="rotate(-180 47 63)" fill="black"/>
<rect y="7" width="2" height="10" fill="black"/>
<rect x="47" y="58" width="2" height="10" transform="rotate(-180 47 58)" fill="black"/>
<rect x="3" y="17" width="2" height="5" fill="black"/>
<rect x="44" y="48" width="2" height="5" transform="rotate(-180 44 48)" fill="black"/>
<rect x="42" y="17" width="2" height="5" fill="black"/>
<rect x="5" y="48" width="2" height="5" transform="rotate(-180 5 48)" fill="black"/>
<rect x="6" y="21" width="2" height="5" fill="black"/>
<rect x="9" y="24" width="2" height="5" fill="black"/>
<rect x="17" y="12" width="2" height="2" fill="black"/>
<rect x="31" y="58" width="2" height="2" transform="rotate(-180 31 58)" fill="black"/>
<rect x="13" y="12" width="2" height="2" fill="black"/>
<rect x="35" y="58" width="2" height="2" transform="rotate(-180 35 58)" fill="black"/>
<rect x="21" y="12" width="2" height="2" fill="black"/>
<rect x="27" y="58" width="2" height="2" transform="rotate(-180 27 58)" fill="black"/>
<rect x="19" y="14" width="2" height="2" fill="black"/>
<rect x="29" y="56" width="2" height="2" transform="rotate(-180 29 56)" fill="black"/>
<rect x="17" y="16" width="2" height="2" fill="black"/>
<rect x="31" y="54" width="2" height="2" transform="rotate(-180 31 54)" fill="black"/>
<rect x="21" y="16" width="2" height="2" fill="black"/>
<rect x="27" y="54" width="2" height="2" transform="rotate(-180 27 54)" fill="black"/>
<rect x="19" y="18" width="2" height="2" fill="black"/>
<rect x="29" y="52" width="2" height="2" transform="rotate(-180 29 52)" fill="black"/>
<rect x="15" y="14" width="2" height="2" fill="black"/>
<rect x="33" y="56" width="2" height="2" transform="rotate(-180 33 56)" fill="black"/>
<rect x="25" y="12" width="2" height="2" fill="black"/>
<rect x="23" y="58" width="2" height="2" transform="rotate(-180 23 58)" fill="black"/>
<rect x="23" y="14" width="2" height="2" fill="black"/>
<rect x="25" y="56" width="2" height="2" transform="rotate(-180 25 56)" fill="black"/>
<rect x="25" y="16" width="2" height="2" fill="black"/>
<rect x="23" y="54" width="2" height="2" transform="rotate(-180 23 54)" fill="black"/>
<rect x="29" y="16" width="2" height="2" fill="black"/>
<rect x="19" y="54" width="2" height="2" transform="rotate(-180 19 54)" fill="black"/>
<rect x="27" y="18" width="2" height="2" fill="black"/>
<rect x="21" y="52" width="2" height="2" transform="rotate(-180 21 52)" fill="black"/>
<rect x="25" y="20" width="2" height="2" fill="black"/>
<rect x="23" y="50" width="2" height="2" transform="rotate(-180 23 50)" fill="black"/>
<rect x="23" y="22" width="2" height="2" fill="black"/>
<rect x="23" y="29" width="2" height="2" fill="black"/>
<rect x="23" y="36" width="2" height="2" fill="black"/>
<rect x="25" y="48" width="2" height="2" transform="rotate(-180 25 48)" fill="black"/>
<rect x="23" y="18" width="2" height="2" fill="black"/>
<rect x="25" y="52" width="2" height="2" transform="rotate(-180 25 52)" fill="black"/>
<rect x="21" y="20" width="2" height="2" fill="black"/>
<rect x="27" y="50" width="2" height="2" transform="rotate(-180 27 50)" fill="black"/>
<rect x="31" y="14" width="2" height="2" fill="black"/>
<rect x="17" y="56" width="2" height="2" transform="rotate(-180 17 56)" fill="black"/>
<rect x="27" y="14" width="2" height="2" fill="black"/>
<rect x="21" y="56" width="2" height="2" transform="rotate(-180 21 56)" fill="black"/>
<rect x="29" y="12" width="2" height="2" fill="black"/>
<rect x="19" y="58" width="2" height="2" transform="rotate(-180 19 58)" fill="black"/>
<rect x="33" y="12" width="2" height="2" fill="black"/>
<rect x="15" y="58" width="2" height="2" transform="rotate(-180 15 58)" fill="black"/>
<rect x="12" y="27" width="2" height="6" fill="black"/>
<rect x="12" y="33" width="2" height="5" fill="black"/>
<rect x="33" y="27" width="2" height="6" fill="black"/>
<rect x="33" y="33" width="2" height="5" fill="black"/>
<rect x="36" y="24" width="2" height="5" fill="black"/>
<rect x="9" y="36" width="2" height="5" fill="black"/>
<rect x="36" y="36" width="2" height="5" fill="black"/>
<rect x="41" y="44" width="2" height="5" transform="rotate(-180 41 44)" fill="black"/>
<rect x="39" y="21" width="2" height="5" fill="black"/>
<rect x="8" y="44" width="2" height="5" transform="rotate(-180 8 44)" fill="black"/>
<rect x="45" y="7" width="2" height="10" fill="black"/>
<rect x="2" y="58" width="2" height="10" transform="rotate(-180 2 58)" fill="black"/>
<rect x="45" y="2" width="2" height="3" fill="black"/>
<rect x="2" y="63" width="2" height="3" transform="rotate(-180 2 63)" fill="black"/>
</svg>
